<?xml version="1.0" encoding="utf-8"?>
<!-- Generator: Adobe Illustrator 16.0.4, SVG Export Plug-In . SVG Version: 6.00 Build 0)  -->
<!DOCTYPE svg PUBLIC "-//W3C//DTD SVG 1.1//EN" "http://www.w3.org/Graphics/SVG/1.1/DTD/svg11.dtd">
<svg version="1.1" id="Calque_1" xmlns="http://www.w3.org/2000/svg" xmlns:xlink="http://www.w3.org/1999/xlink" x="0px" y="0px"
	 width="900px" height="900px" viewBox="0 0 900 900" enable-background="new 0 0 900 900" xml:space="preserve">
<g id="Calque_3">
	<path fill="#FFFFFF" d="M714.975,450.026c-27.062,3.225-72.51,8.82-110.111,6.615c-37.605-2.149-43.545,0.48-105.598-14.203
		c6.174,16.747,21.512,45.738-20.258,111.235c-24.434,32.961-28.843,59.422-26.52,71.081c2.328,11.667,5.721,22.231,12.611,28.343
		c6.891,6.055,9.52,14.44,44.662,11.923c66.598-4.702,137.584-1.481,179.73-40.582c0,0,27.939-32.689,50.42-82.514
		c15.242-33.877,35.678-80.079,41.859-104.211C750.869,444.276,742.037,446.81,714.975,450.026z M667.527,562.199
		c-6.506,12.313-19.373,26.94-28.83,34.312c-9.459,7.372-29.592,19.896-70.334,16.597c-30.916-2.436-31.393-12.561-31.393-12.561
		s-3.104-4.562,4.633-19.668c7.729-15.103,40.947-79.863,40.947-79.863s35.924,7.914,57.977,5.307
		c27.293-3.253,40.127-7.179,67.504-17.373C698.812,510.807,667.527,562.199,667.527,562.199z"/>
	<path fill="#383838" d="M498.039,675.479c-22.807,0-30.451-5.817-37.443-12.845c-0.773-0.777-1.441-1.449-2.098-2.025
		c-9.753-8.648-13.575-22.657-15.818-33.896c-3.091-15.514,2.676-44.316,28.082-78.706c36.371-57.175,26.342-83.278,20.346-98.884
		c-0.434-1.122-0.846-2.196-1.225-3.226l-6.441-17.48l18.129,4.29c49.346,11.677,62.051,12.177,85.115,13.083
		c5.402,0.214,11.529,0.454,18.746,0.866c5.492,0.322,11.438,0.485,17.682,0.485c31.609,0,65.885-4.088,88.564-6.794l2.113-0.252
		c21.498-2.556,31.188-4.659,50.488-8.847c4.535-0.984,9.582-2.08,15.414-3.318l15.764-3.348l-3.998,15.612
		c-6.029,23.534-23.955,64.773-42.428,105.832c-22.811,50.554-50.76,83.529-51.939,84.908l-0.375,0.439l-0.424,0.395
		c-38.197,35.438-97.312,38.477-154.484,41.416c-10.32,0.53-20.99,1.079-31.342,1.811
		C505.988,675.316,501.805,675.479,498.039,675.479z M546.854,597.75c1.732,1.25,7.318,4.209,22.295,5.39
		c4.201,0.34,8.305,0.512,12.217,0.512c21.471,0,38.213-4.915,51.186-15.026c8.111-6.321,20.105-19.683,26.137-31.098l0.143-0.269
		l0.158-0.261c0.227-0.371,16.799-27.636,29.1-50.399c-14.338,4.588-26.965,7.341-46.375,9.654
		c-3.355,0.396-7.131,0.598-11.23,0.598c-15.328,0-32.736-2.755-42.477-4.555c-8.699,16.96-31.301,61.025-37.498,73.14
		c-3.195,6.239-3.938,9.736-4.104,11.195l0.426,0.625L546.854,597.75z"/>
	<path fill="#FFFFFF" d="M714.975,450.026c-27.062,3.225-72.51,8.82-110.111,6.615c-37.605-2.149-43.545,0.48-105.598-14.203
		c6.174,16.747,21.512,45.738-20.258,111.235c-24.434,32.961-28.843,59.422-26.52,71.081c2.328,11.667,5.721,22.231,12.611,28.343
		c6.891,6.055,9.52,14.44,44.662,11.923c66.598-4.702,137.584-1.481,179.73-40.582c0,0,27.939-32.689,50.42-82.514
		c15.242-33.877,35.678-80.079,41.859-104.211C750.869,444.276,742.037,446.81,714.975,450.026z M667.527,562.199
		c-6.506,12.313-19.373,26.94-28.83,34.312c-9.459,7.372-29.592,19.896-70.334,16.597c-30.916-2.436-31.393-12.561-31.393-12.561
		s-3.104-4.562,4.633-19.668c7.729-15.103,40.947-79.863,40.947-79.863s35.924,7.914,57.977,5.307
		c27.293-3.253,40.127-7.179,67.504-17.373C698.812,510.807,667.527,562.199,667.527,562.199z"/>
</g>
<g id="Calque_2">
	<path fill="#1A1A1A" d="M328.018,263.124c7.069,14.696,23.478,39.835-8.964,103.048c-19.478,32.098-21.209,56.567-18.1,66.99
		c3.109,10.412,7.1,19.771,13.886,24.725c6.785,4.952,9.795,11.525,41.669,7.069c31.875-4.457,56.526-20.156,65.593-25.596
		c-6.654,21.727-16.742,48.973-29.631,65.087c-12.89,16.124-35.304,45.446-83.546,60.71c-48.242,15.264-74.657,7.445-93.021,3.91
		c-18.364-3.535-38.731-8.73-38.731-8.73l-53.763,73.18c0,0,50.329,11.708,69.816,13.986c19.487,2.289,75.614,7.819,104.512,1.529
		c28.896-6.29,54.526-4.254,84.393-39.744c18.353-21.807,42.746-70.546,63.896-107.06l39.574-68.317l35.039-60.498l49.32-89.815
		c0,0-59.893,37.025-73.316,37.724c-1.25,7.25-7.668,23.285-7.848,23.708c-4.975,11.697-13.629,27.815-21.332,35.088
		c-7.98,7.535-26.249,27.671-63.684,28.097c-28.359,0.425-29.657-8.731-29.657-8.731s-3.199-3.919,2.568-18.333
		c5.769-14.423,30.481-76.208,30.481-76.208s31.367-4.436,50.872-10.088c19.502-5.662,68.338-21.29,94.01-37.982
		c25.67-16.691,25.18-16.459,32.852-22.125c-27.586,8.594-35.404,11.663-59.773,16.889c-24.369,5.236-65.301,14.221-99.728,15.436
		C390.977,268.279,385.792,271.216,328.018,263.124z"/>
	<path fill="#1A1A1A" d="M328.018,263.124c7.069,14.696,23.478,39.835-8.964,103.048c-19.478,32.098-21.209,56.567-18.1,66.99
		c3.109,10.412,7.1,19.771,13.886,24.725c6.785,4.952,9.795,11.525,41.669,7.069c31.875-4.457,56.526-20.156,65.593-25.596
		c-6.654,21.727-16.742,48.973-29.631,65.087c-12.89,16.124-35.304,45.446-83.546,60.71c-48.242,15.264-74.657,7.445-93.021,3.91
		c-18.364-3.535-38.731-8.73-38.731-8.73l-53.763,73.18c0,0,50.329,11.708,69.816,13.986c19.487,2.289,75.614,7.819,104.512,1.529
		c28.896-6.29,54.526-4.254,84.393-39.744c18.353-21.807,42.746-70.546,63.896-107.06l39.574-68.317l35.039-60.498l49.32-89.815
		c0,0-59.893,37.025-73.316,37.724c-1.25,7.25-7.668,23.285-7.848,23.708c-4.975,11.697-13.629,27.815-21.332,35.088
		c-7.98,7.535-26.249,27.671-63.684,28.097c-28.359,0.425-29.657-8.731-29.657-8.731s-3.199-3.919,2.568-18.333
		c5.769-14.423,30.481-76.208,30.481-76.208s31.367-4.436,50.872-10.088c19.502-5.662,68.338-21.29,94.01-37.982
		c25.67-16.691,25.18-16.459,32.852-22.125c-27.586,8.594-35.404,11.663-59.773,16.889c-24.369,5.236-65.301,14.221-99.728,15.436
		C390.977,268.279,385.792,271.216,328.018,263.124z"/>
	<path fill="#F9B84E" d="M564.701,275.092c-27.297,16.875-61.297,35.532-68.578,36.244l-7.977,0.415l-1.357,7.872
		c-0.881,5.109-5.678,17.786-7.195,21.494c-4.723,11.104-12.682,25.77-18.996,31.731c-0.545,0.515-1.135,1.085-1.775,1.703
		c-8.434,8.147-24.134,23.313-55.191,23.666c-0.592,0.009-1.173,0.013-1.738,0.013c-11.488,0-16.439-1.776-18.229-2.693l-0.03-0.216
		l-0.383-0.468c0.073-1.387,0.528-4.501,2.726-9.988l28.352-70.882c10.144-1.579,31.458-5.162,46.505-9.522
		c10.977-3.187,67.221-20.052,96.672-39.203c24.545-15.959,25.414-16.602,32.176-21.604l1.166-0.861l-8.916-17.591
		c-5.318,1.657-9.906,3.11-14.02,4.412c-17.084,5.41-25.658,8.125-44.881,12.248l-2.115,0.455
		c-23.674,5.092-63.297,13.614-95.861,14.764c-6.708,0.235-12.376,0.537-17.376,0.804c-7.151,0.382-13.327,0.712-20.06,0.712
		c-14.089,0-30.954-1.557-58.214-5.375l-18.494-2.59l8.096,16.829c0.426,0.885,0.883,1.806,1.361,2.77
		c6.739,13.552,18.011,36.22-10.052,91.068c-20.352,33.675-23.138,60.667-18.944,74.728c3.043,10.188,7.79,22.8,17.572,29.938
		c0.603,0.44,1.242,0.96,1.919,1.511c5.812,4.723,12.3,8.962,27.643,8.962c5.466,0,11.808-0.517,19.388-1.575
		c18.217-2.547,34.095-8.458,46.388-14.282c-6.376,16.59-13.031,29.388-19.622,37.626l-1.045,1.311
		c-12.581,15.771-33.637,42.167-77.707,56.109c-18.313,5.794-34.748,8.611-50.243,8.611c-13.445,0.001-23.703-2.104-32.753-3.958
		c-1.774-0.364-3.478-0.713-5.118-1.028c-17.845-3.436-37.949-8.55-38.15-8.601l-6.536-1.667l-66.737,90.838l14.774,3.438
		c2.077,0.483,51.104,11.861,70.916,14.18c11.534,1.354,41.379,4.506,69.33,4.506c15.966,0,28.912-1.056,38.476-3.137
		c4.816-1.05,9.692-1.883,14.408-2.688c23.839-4.072,48.49-8.283,75.508-40.389c13.77-16.36,30.358-46.416,46.4-75.481
		c6.166-11.17,12.541-22.721,18.499-33.005l74.613-128.815l67.713-123.304L564.701,275.092z M520.639,373.413L485.6,433.911
		l-39.574,68.317c-21.147,36.514-45.543,85.253-63.896,107.06c-29.865,35.49-55.495,33.454-84.393,39.744
		c-28.897,6.29-85.024,0.76-104.512-1.529c-19.487-2.278-69.816-13.986-69.816-13.986l53.763-73.18c0,0,20.368,5.195,38.731,8.73
		c18.363,3.535,44.778,11.354,93.021-3.91c48.244-15.264,70.657-44.586,83.546-60.71c12.889-16.114,22.977-43.36,29.631-65.087
		c-9.065,5.438-33.718,21.139-65.593,25.596c-31.874,4.456-34.883-2.117-41.669-7.069c-6.786-4.953-10.776-14.312-13.886-24.725
		c-3.109-10.423-1.378-34.893,18.1-66.99c32.44-63.213,16.033-88.352,8.964-103.048c57.772,8.092,62.959,5.155,97.386,3.95
		c34.428-1.215,75.358-10.2,99.729-15.436c24.367-5.226,32.188-8.295,59.771-16.889c-7.672,5.667-7.182,5.434-32.852,22.125
		c-25.672,16.692-74.506,32.32-94.01,37.982c-19.502,5.652-50.871,10.088-50.871,10.088s-24.714,61.784-30.481,76.208
		c-5.769,14.414-2.568,18.333-2.568,18.333s1.298,9.156,29.657,8.731c37.436-0.426,55.703-20.562,63.685-28.097
		c7.701-7.273,16.355-23.392,21.332-35.088c0.18-0.424,6.598-16.458,7.848-23.708c13.424-0.699,73.316-37.724,73.316-37.724
		L520.639,373.413z"/>
	<path opacity="0.4" fill="#FFFFFF" enable-background="new    " d="M521.502,372.836c-7.52,4.224-28.191,21.483-62.314,77.757
		c-34.12,56.264-69.29,112.791-96.4,140.797c-27.11,27.994-56.167,37.557-96.319,40.839c-40.15,3.28-102.268,7.373-136.951,1.803
		c58.091,11.911,66.963,14.301,104.514,17.33c37.551,3.028,119.758-5.439,142.101-34.894
		C398.472,587.015,509.086,394.308,521.502,372.836z"/>
</g>
</svg>
