<?xml version="1.0" encoding="utf-8"?>
<!-- Generator: Adobe Illustrator 16.0.4, SVG Export Plug-In . SVG Version: 6.00 Build 0)  -->
<!DOCTYPE svg PUBLIC "-//W3C//DTD SVG 1.1//EN" "http://www.w3.org/Graphics/SVG/1.1/DTD/svg11.dtd">
<svg version="1.1" id="Calque_1" xmlns="http://www.w3.org/2000/svg" xmlns:xlink="http://www.w3.org/1999/xlink" x="0px" y="0px"
	 width="900px" height="900px" viewBox="0 0 900 900" enable-background="new 0 0 900 900" xml:space="preserve">
<g id="Calque_1_1_">
	<path fill="#F45151" d="M439.921,353.791c-7.13,0.619-14.062,1.988-20.725,4.052L291.989,71.479l97.413-24.661l48.938,296.007
		L439.921,353.791z"/>
	<path fill="#F45151" d="M402.837,363.519c-6.267,3.455-12.05,7.518-17.304,12.105l-232.365-210.22l79.055-62.031l164.722,250.763
		L402.837,363.519z"/>
	<path fill="#F45151" d="M372.794,388.973c-4.456,5.599-8.233,11.573-11.319,17.828L66.142,302.09l49.125-87.659l248.48,168.146
		L372.794,388.973z"/>
	<path fill="#F45151" d="M355.09,424.26c-1.965,6.881-3.16,13.849-3.607,20.809L38.581,461.756l11.709-99.803l293.99,59.874
		L355.09,424.26z"/>
	<path fill="#F45151" d="M352.375,462.579c0.868,7.104,2.477,13.987,4.772,20.572L75.392,620.263l-28.043-96.494l294.122-59.226
		L352.375,462.579z"/>
	<path fill="#F45151" d="M366.479,502.18c3.631,6.168,7.854,11.836,12.588,16.959L175.446,757.308l-64.225-77.282l246.042-171.691
		L366.479,502.18z"/>
	<path fill="#F45151" d="M454.121,353.167c7.154,0.016,14.18,0.796,20.992,2.292L577.758,59.4l-99.145-16.372l-23.84,299.078
		L454.121,353.167z"/>
	<path fill="#F45151" d="M495.218,363.475c6.658,2.622,12.915,5.909,18.716,9.785l203.474-238.295l-86.36-51.376L499.855,353.412
		L495.218,363.475z"/>
	<path fill="#F45151" d="M523.871,385.724c4.893,5.223,9.137,10.873,12.716,16.86l285.96-128.114l-56.014-83.426L532.376,378.621
		L523.871,385.724z"/>
	<path fill="#F45151" d="M545.012,418.846c2.496,6.707,4.229,13.56,5.221,20.463l313.248-7.743l-19.449-98.587l-288.432,82.6
		L545.012,418.846z"/>
	<path fill="#F45151" d="M549.241,464.222c-0.712,7.121-2.168,14.039-4.314,20.675l284.752,130.779l25.877-97.099l-295.37-52.636
		L549.241,464.222z"/>
	<path fill="#F45151" d="M533.214,505.902c-3.617,6.175-7.827,11.853-12.551,16.982l204.113,237.75l64.062-77.419L542.441,512.038
		L533.214,505.902z"/>
	<path fill="#F45151" d="M502.759,534.243c-5.887,4.068-12.1,7.438-18.547,10.101l84.746,301.67l90.746-43.157l-151.17-259.16
		L502.759,534.243z"/>
	<path fill="#F45151" d="M463.085,548.591c-7.076,1.082-14.138,1.393-21.098,0.959l-55.953,308.312l100.482,0.946l-22.383-299.188
		L463.085,548.591z"/>
	<path fill="#F45151" d="M417.668,540.344c-6.961-1.661-13.62-4.031-19.908-7.05L229.92,797.898l92.741,38.688l91.832-285.628
		L417.668,540.344z"/>
	<circle fill="#F45151" cx="451.046" cy="451.022" r="100"/>
</g>
</svg>
